#format: frame checksums
#version: 1
#hash: MD5
#tb 0: 1/25
#stream#, dts,        pts, duration,     size, hash
0,          0,          0,        1,    59796, a7136363bc4b9ac663178e5c7f24bae7
0,          1,          1,        1,    60012, d296cf24776234599e22526598de838c
0,          2,          2,        1,    61040, e889f81df51b75acf8131de97f9da4e3
0,          3,          3,        1,    59656, a63c343139b1117260cf6f790ba87968
0,          4,          4,        1,    58592, e2170222ac38ddc0703f5b537b4beb79
0,          5,          5,        1,    60248, 0ea350ecf7d8a440b06a60550b5dfa4c
0,          6,          6,        1,    60480, 792694fa65994c407fd76d06fdbbdc34
0,          7,          7,        1,    59888, eaef81fd1fa459feb9a3b15817c861a4
0,          8,          8,        1,    60080, 610a75f3c275ffef75006fb862642993
0,          9,          9,        1,    60320, 1e1cc244d2ea6b259d06384d1a95cc89
0,         10,         10,        1,    60300, ddbb7eb36b73cd4f1dc28ded5217952e
0,         11,         11,        1,    60288, 13f14eed47e1c4fec9f99b47316f82b6
0,         12,         12,        1,    59172, c7c205489a3b389290f2c56e66bf8ddb
0,         13,         13,        1,    59664, 81eead1a1fe199e4b66e9bc2f04ac892
0,         14,         14,        1,    61004, d02e17515451d4259d7179741d208b28
0,         15,         15,        1,    61088, 4f1c9877caf59dc5ebf5646fe98b3ef5
0,         16,         16,        1,    60072, 5c4c41d25e9aa0da07da89475275513b
0,         17,         17,        1,    59876, aeeb1f7a68a23f9fd0503831bfeb2ed1
0,         18,         18,        1,    59396, 154d2a0717aeb78e47e20bbc9d4aa69a
0,         19,         19,        1,    59076, 3fdcb2330689aed91d92d515a9eb015a
0,         20,         20,        1,    58740, 71a054852adaf0da188550fd77ae2069
0,         21,         21,        1,    58584, 403746356fd559e9bace9bb37557e58e
0,         22,         22,        1,    58952, 1a3d80d21e00ca5ce8c378da373c65d8
0,         23,         23,        1,    59696, f66ace9c237d6ee91a4c23a957fde2a1
0,         24,         24,        1,    60664, 69e6f45d9adf351650648b3fd6fc41b8
0,         25,         25,        1,    59748, ed9e5524584eb0438f88e12af331009e
0,         26,         26,        1,    59088, 4325aa8c838b5793364c6ab6ed904d84
0,         27,         27,        1,    58752, 46a17359055b7ac3285c845af9701c74
0,         28,         28,        1,    56928, a1fb544e10ee9806c80b5b80d85ef813
0,         29,         29,        1,    56960, e17a9082644d542b3d589346d3421c51
0,         30,         30,        1,    58140, f5ae6688db909252b67c3fbe62d783ff
0,         31,         31,        1,    58980, 71a7053ff0857fa0651e2b8c5626598c
0,         32,         32,        1,    59548, 60b3d97b4f3893b791894968b7586e99
0,         33,         33,        1,    61248, ceb9cccd0327ae4c52d8a2cf009d15f7
0,         34,         34,        1,    60032, ea2ce622422c4efa41069707b231fd52
0,         35,         35,        1,    59252, b891818e1aba1e29c23fecbf405b03c0
0,         36,         36,        1,    58568, 0aec4492ddb9608bf217f8b828378680
0,         37,         37,        1,    58744, 0f218bdc62102270393e7973caa251aa
0,         38,         38,        1,    58280, 89c93e37590d56c7c32f4955e59b7c54
0,         39,         39,        1,    58236, 9575ac5076c1c347069b48aa8cb6381f
0,         40,         40,        1,    57308, e4ede1a1ab344b39399b231fec0cf420
0,         41,         41,        1,    58964, 9f9c800eddf1fbb093c7ae1320f2ec19
0,         42,         42,        1,    58800, 9729551ff14d80a3b647bb9688e38cd1
0,         43,         43,        1,    58716, f0d81b0b287bbe1decd18eac2873166b
0,         44,         44,        1,    58136, e6aa11b60f8be9cd3d3e9d5c22b326ff
0,         45,         45,        1,    56772, c3dd97f5d29511103b80edfcf39d2fe3
0,         46,         46,        1,    55904, ae67aee10ae3b04ac2dc19158bb9c69f
0,         47,         47,        1,    56344, f3c9c3dd5238c1f29f9204e1efeb6235
0,         48,         48,        1,    56396, 93b8a198ac7c7118da0b581a50633df9
0,         49,         49,        1,    55480, b2907ad8da8252dd6403b72eeb49b141
